<svg
  width="16"
  height="16"
  viewBox="0 0 16 16"
  xmlns="http://www.w3.org/2000/svg"
>
  <path
    d="M7.836 0c2.6 0 4.72 2.12 4.72 4.72a4.72 4.72 0 0 1-2.032 3.876A7.797 7.797 0 0 1 15.627 16l-1.603-.045a6.176 6.176 0 0 0-6.188-6.188C4.41 9.767 1.648 12.53 1.603 16L0 15.955c0-3.372 2.149-6.259 5.148-7.36A4.72 4.72 0 0 1 3.116 4.72c0-2.6 2.12-4.72 4.72-4.72zm0 1.648A3.062 3.062 0 0 0 4.765 4.72a3.062 3.062 0 0 0 3.071 3.07 3.062 3.062 0 0 0 3.071-3.07 3.062 3.062 0 0 0-3.071-3.072z"
    fill="currentColor"
    fill-rule="evenodd"
  />
</svg>
