<svg
  width="20"
  height="20"
  viewBox="0 0 20 20"
  xmlns="http://www.w3.org/2000/svg"
>
  <path
    d="M17.159 16.36h-2.843v-4.456c0-1.062-.02-2.429-1.48-2.429-1.478 0-1.704 1.159-1.704 2.353v4.533h-2.84V7.198h2.724V8.45h.04c.38-.72 1.307-1.48 2.69-1.48 2.881 0 3.413 1.897 3.413 4.365v5.026zM5.084 5.948a1.65 1.65 0 1 1 0-3.302 1.65 1.65 0 0 1 0 3.302zM3.66 16.36h2.848V7.198H3.659v9.163zM18.575 0H2.233C1.453 0 .819.62.819 1.385v16.43c0 .764.634 1.385 1.414 1.385h16.342c.782 0 1.419-.62 1.419-1.386V1.384C19.994.62 19.357 0 18.574 0z"
    fill="currentColor"
    fill-rule="evenodd"
  />
</svg>
