<svg
  width="16"
  height="16"
  viewBox="0 0 16 16"
  xmlns="http://www.w3.org/2000/svg"
>
  <g fill="none" fill-rule="evenodd">
    <path d="M-953-145H487v3730H-953z" />
    <path
      d="M14.447 1.96c-1.703-1.45-4.25-1.21-5.83.421L8 3.02l-.615-.635C6.11 1.066 3.538.272 1.554 1.96-.41 3.634-.512 6.641 1.244 8.453l6.047 6.244a.971.971 0 0 0 1.413 0l6.047-6.244c1.762-1.812 1.659-4.819-.304-6.494zm-.409 5.8-6.025 6.243-6.05-6.244c-1.2-1.237-1.45-3.597.24-5.037 1.713-1.463 3.726-.403 4.463.36L8 4.458l1.335-1.378c.725-.75 2.756-1.812 4.462-.36 1.688 1.438 1.441 3.798.241 5.038z"
      fill="currentColor"
      fill-rule="nonzero"
    />
  </g>
</svg>
