<svg
  width="20"
  height="20"
  viewBox="0 0 20 20"
  xmlns="http://www.w3.org/2000/svg"
>
  <path
    d="M6.023 18.012c7.236 0 11.195-6.008 11.195-11.21 0-.169 0-.338-.008-.507a8.022 8.022 0 0 0 1.965-2.043 7.966 7.966 0 0 1-2.264.622 3.963 3.963 0 0 0 1.734-2.182 7.82 7.82 0 0 1-2.501.953 3.925 3.925 0 0 0-2.87-1.245 3.942 3.942 0 0 0-3.936 3.941c0 .308.038.607.1.9a11.168 11.168 0 0 1-8.11-4.119 3.944 3.944 0 0 0-.53 1.982c0 1.368.698 2.574 1.75 3.281a3.976 3.976 0 0 1-1.78-.492v.054a3.947 3.947 0 0 0 3.153 3.865c-.33.092-.675.138-1.036.138-.253 0-.499-.023-.737-.07a3.935 3.935 0 0 0 3.676 2.736 7.885 7.885 0 0 1-4.888 1.69c-.314 0-.63-.015-.936-.053a11.181 11.181 0 0 0 6.023 1.759"
    fill="currentColor"
    fill-rule="evenodd"
  />
</svg>
