<svg
  width="20"
  height="20"
  viewBox="0 0 20 20"
  xmlns="http://www.w3.org/2000/svg"
>
  <path
    d="M11.031.001c.966.003 1.467.01 1.919.024l.192.007c.19.007.384.015.61.026 1.021.046 1.718.209 2.328.446.63.245 1.165.574 1.698 1.107.533.534.861 1.07 1.106 1.7.237.611.4 1.31.446 2.33l.03.709.005.194c.014.461.02 1.002.022 2.038v2.036a71.161 71.161 0 0 1-.025 2.136l-.006.192c-.007.191-.016.385-.026.612-.047 1.022-.209 1.72-.446 2.33a4.707 4.707 0 0 1-1.106 1.7 4.7 4.7 0 0 1-1.698 1.108c-.61.237-1.307.4-2.327.446-.947.043-1.297.056-3.41.058H9.257c-2.114-.002-2.464-.015-3.41-.058-1.021-.046-1.718-.209-2.328-.446a4.7 4.7 0 0 1-1.698-1.107 4.706 4.706 0 0 1-1.106-1.7c-.237-.611-.4-1.31-.446-2.33-.01-.228-.019-.422-.026-.613l-.006-.192a65.074 65.074 0 0 1-.024-1.921V8.367a69.75 69.75 0 0 1 .02-1.823l.007-.194c.008-.224.017-.443.03-.708.046-1.022.208-1.72.445-2.33a4.706 4.706 0 0 1 1.106-1.7A4.699 4.699 0 0 1 3.52.503c.61-.237 1.307-.4 2.327-.446.227-.01.42-.02.611-.026L6.65.025C7.102.011 7.603.004 8.57.001zm-.945 1.729H8.768a65.287 65.287 0 0 0-2.122.026l-.194.007c-.163.006-.332.014-.526.023-.935.042-1.443.199-1.78.33a2.97 2.97 0 0 0-1.103.718 2.974 2.974 0 0 0-.717 1.104c-.131.338-.287.847-.33 1.783-.037.817-.05 1.173-.055 2.63v2.498c.004 1.457.018 1.813.055 2.63.043.936.199 1.445.33 1.783.174.448.382.768.717 1.104a2.97 2.97 0 0 0 1.103.718c.337.131.845.288 1.78.33.894.041 1.234.054 3.073.056h1.602c1.839-.002 2.179-.015 3.073-.056.935-.042 1.443-.199 1.78-.33a2.97 2.97 0 0 0 1.103-.718c.335-.336.543-.656.717-1.104.131-.338.287-.847.33-1.783.01-.233.02-.43.026-.624l.007-.195c.015-.495.021-1.058.022-2.258V8.798c-.002-1.84-.014-2.182-.055-3.077-.043-.936-.199-1.445-.33-1.783a2.974 2.974 0 0 0-.717-1.104 2.97 2.97 0 0 0-1.103-.718c-.337-.131-.845-.288-1.78-.33a80.404 80.404 0 0 0-.526-.023l-.194-.007a65.286 65.286 0 0 0-2.122-.025l-.48-.001H9.8zM9.8 4.67a4.926 4.926 0 0 1 4.923 4.93A4.926 4.926 0 0 1 9.8 14.53 4.926 4.926 0 0 1 4.877 9.6 4.926 4.926 0 0 1 9.8 4.67zm0 1.73a3.198 3.198 0 0 1 3.196 3.2c0 1.767-1.431 3.2-3.196 3.2a3.198 3.198 0 0 1-3.196-3.2c0-1.767 1.431-3.2 3.196-3.2zm5.118-3.077a1.151 1.151 0 1 1-.002 2.303 1.151 1.151 0 0 1 .002-2.303z"
    fill="currentColor"
    fill-rule="evenodd"
  />
</svg>
