<svg xmlns="http://www.w3.org/2000/svg" viewBox="0 0 421.3092 280.5658">
  <path
    fill="#0065f2"
    d="M210.2644,122.508c-11.6661,2.6933-18.88,15.7749-17.7734,30.6993a41.244,41.244,0,0,0,.9634,6.4174c4.0258,17.4242,18.0717,29.0758,31.3845,25.9992,13.3221-3.0757,20.8365-19.7017,16.8143-37.1238a41.5979,41.5979,0,0,0-1.9334-6.1965C234.1689,128.4054,221.942,119.812,210.2644,122.508ZM59.4705,204.185l-2.19-9.5656s-16.54,8.7664-22.4312,11.82c-5.8931,3.06-9.1386,8.5048-8,13.4391,2.0212,8.7548,10.1889,8.424,16.9594,6.8609C54.75,224.2134,61.7614,214.1214,59.4705,204.185Zm199.3657-22.944c-.0434.0888-.085.1863-.1365.28-6.0866,12.0087-16.5855,21.1155-29.9085,24.1943a43.5155,43.5155,0,0,1-25.6981-2.0265l14.0222,60.7232A13.2422,13.2422,0,0,1,191.31,270.37l-15.2241-65.943L165.7426,159.625l-2.479-10.7376-.0347.008a15.0979,15.0979,0,0,0-29.4044,6.7886l-.0377.0087L146.5924,211.16c.0053.023.0071.0438.0131.07L120.81,217.1882c-.006-.0259-.0164-.0447-.0224-.0706l-12.8063-55.47-.0521.012a15.0887,15.0887,0,0,0-29.3871,6.7845l-.0456.0135,12.8027,55.468c.0061.0259.0071.0439.0131.07L15.8065,241.43A29.572,29.572,0,0,1,4.9014,224.6874c-2.39-10.34,1.126-20.7968,8.49-28.4339a37.3149,37.3149,0,0,1,10.8618-7.68l28.5734-13.6222-1.0789-4.66c-.737-3.1926-6.1115-9.1136-16.3248-6.7557-15.0676,3.4816-9.45,18.81-20.7769,21.4281a11.97,11.97,0,0,1-14.371-8.9321,11.6334,11.6334,0,0,1,.1-5.4294c3.3283-12.7364,14.8353-23.7465,30.3665-27.3323,11.7467-2.7119,23.3161-.5951,31.9635,4.9161a34.1227,34.1227,0,0,1,53.6457-9.1316,34.1134,34.1134,0,0,1,57.9042-9.9721c5.91-12.9444,16.8158-22.8242,30.8245-26.0613,24.2341-5.595,48.8513,10.6654,56.8259,36.693.4029,1.3229.795,2.6515,1.1071,4.0167.428,1.8539.75,3.711,1.0042,5.5505.0624.5344.081,1.0638.1372,1.5845.1428,1.3314.2679,2.6519.3123,3.9667.0179.5659.0138,1.1157-.0007,1.6861.012,1.28-.001,2.5563-.0764,3.8139-.0257.5093-.0887,1.015-.1376,1.53-.1088,1.3108-.2636,2.62-.4647,3.9006-.07.4224-.1489.8469-.2333,1.2728-.2547,1.3656-.5458,2.7184-.894,4.0481-.0942.331-.1886.6348-.2671.9682-.4114,1.4261-.8627,2.8372-1.3874,4.2075-.0725.2139-.1616.4225-.2309.6234C260.1871,178.3669,259.5526,179.8294,258.8362,181.241Zm36.9878-40.1527c.0283.1089.0285.2183.05.338l7.8071,33.6947a.3386.3386,0,0,0,.0126.0548l-26.3874,6.095a.2034.2034,0,0,0-.02-.0592l-7.8563-34.03L254.8317,83.936l-15.993-69.26A13.814,13.814,0,0,1,249.4409.35a13.4829,13.4829,0,0,1,15.5647,8.0058ZM335.28,94.9105c-8.3661,3.7227-13.9569,12.8275-14.7607,23.5614l45.9035-10.5947c-5.4141-9.3014-14.4363-15.0325-23.4864-14.716a20.9141,20.9141,0,0,0-3.9689.5061A20.3,20.3,0,0,0,335.28,94.9105Zm53.3481,48.6586a10.2379,10.2379,0,0,1-.1677,5.2972,52.1393,52.1393,0,0,1-4.2957,8.2375l-60.3222,13.9295a56.0929,56.0929,0,0,1-24.6836-35.2625c-6.5882-28.55,8.6341-56.5226,33.951-62.3675,25.3139-5.8441,51.2631,12.62,57.855,41.1724.1172.508.2156,1.0264.2977,1.5394l.1042.5966a7.9227,7.9227,0,0,1-5.9059,8.5755l-4.5082,1.0561-8.0488,1.8581L323.66,139.57c6.0725,11.888,17.4871,18.3481,28.382,15.836,6.8927-1.5914,12.5-6.5149,15.77-13.8552a11.2578,11.2578,0,0,1,7.5754-6.026A10.9623,10.9623,0,0,1,388.628,143.5691Zm10.5883,11.8353a11.1887,11.1887,0,1,1,13.4116,8.3867A11.173,11.173,0,0,1,399.2163,155.4044Z"
  />
</svg>
